# xmcd CD database file
#
# Track frame offsets:
#	150
#	20090
#	41331
#	61319
#	79486
#	97400
#	118168
#	136129
#	161867
#	185882
#	205328
#	226754
#	247967
#	267040
#
# Disc length: 3800 seconds
#
# Revision: 0
# Processed by: cddbd v1.5PL3 Copyright (c) Steve Scherf et al.
# Submitted via: CDex 1.51
#
DISCID=ca0ed60e
DTITLE=Logos - Elixir - Remix 2000
DYEAR=2000
DGENRE=New Age
TTITLE0=Quintessence
TTITLE1=Lapis Lazuli
TTITLE2=Eclypsia
TTITLE3=Opale
TTITLE4=Centaure
TTITLE5=Prophecy
TTITLE6=Le Rêve des Dauphins
TTITLE7=La Mémoire du Temps
TTITLE8=Bramaloka
TTITLE9=Le Soupir de Satrurne
TTITLE10=Sources
TTITLE11=Les Jardins du Soleil
TTITLE12=POrte du Ciel
TTITLE13=Japan San
EXTD=YEAR: 2000
EXTT0=
EXTT1=
EXTT2=
EXTT3=
EXTT4=
EXTT5=
EXTT6=
EXTT7=
EXTT8=
EXTT9=
EXTT10=
EXTT11=
EXTT12=
EXTT13=
PLAYORDER=
